# xmcd
#
# Track frame offsets:
#  150
#  13495
#  26593
#  39213
#  50203
#  79425
#  95355
#  105285
#  117770
#  126985
#  136110
#  150260
#  162210
#  175750
#  186740
#  198223
#  209850
#
# Disc length: 3086 seconds
#
# Revision: 2
# Processed by: cddbd v1.5.1PL2 Copyright (c) Steve Scherf et al.
# Submitted via: Collectorz.com_Music_Collector 6.10
#
DISCID=e80c0c11
DTITLE=Don Williams and The Pozo Seco Singers - Ruby Tuesday
DYEAR=1997
DGENRE=Country
TTITLE0=Where Do We Go From Here
TTITLE1=Ruby Tuesday
TTITLE2=There's Never Been a Time
TTITLE3=Always something There To Remind Me
TTITLE4=Strawberry Fields
TTITLE5=Tears
TTITLE6=Take My Hand For A While
TTITLE7=Coming Apart
TTITLE8=Apartment No 9
TTITLE9=In My Life
TTITLE10=The Long Walk From Childhood
TTITLE11=On Her Way To Be A Woman
TTITLE12=Ordinary
TTITLE13=Spend Some Time With Me
TTITLE14=Storybook Children
TTITLE15=Follow Me Back To Louisville
TTITLE16=There's No Angel On My Shoulder
EXTD=
EXTT0=
EXTT1=
EXTT2=
EXTT3=
EXTT4=
EXTT5=
EXTT6=
EXTT7=
EXTT8=
EXTT9=
EXTT10=
EXTT11=
EXTT12=
EXTT13=
EXTT14=
EXTT15=
EXTT16=
PLAYORDER=
